<svg id="SvgjsSvg1001" width="288" height="288" xmlns="http://www.w3.org/2000/svg" version="1.1" xmlns:xlink="http://www.w3.org/1999/xlink" xmlns:svgjs="http://svgjs.com/svgjs"><defs id="SvgjsDefs1002"></defs><g id="SvgjsG1008" transform="matrix(0.9167,0,0,0.9167,11.995200000000011,11.995200000000011)"><svg xmlns="http://www.w3.org/2000/svg" enable-background="new 0 0 512 512" viewBox="0 0 512 512" width="288" height="288"><path fill="none" stroke="#30a715" stroke-linecap="round" stroke-linejoin="round" stroke-miterlimit="2.613" stroke-width="20" d="
	M208,412h96 M272,412v-76v-16h40c17.6,0,32-14.4,32-32V184c0-8.8-7.2-16-16-16c-8.8,0-16,7.2-16,16v96c0,4.4-3.6,8-8,8h-32V116
	c0-8.8-7.2-16-16-16c-8.8,0-16,7.2-16,16v172v16l-32,0c-4.4,0-8-3.6-8-8v-72c0-8.8-7.2-16-16-16c-8.8,0-16,7.2-16,16v80
	c0,17.6,14.4,32,32,32h40v76" class="colorStroke000 svgStroke"></path></svg></g></svg>