<?xml version="1.0" encoding="UTF-8" standalone="no"?><svg xmlns="http://www.w3.org/2000/svg" xmlns:xlink="http://www.w3.org/1999/xlink" width="48px" height="48px" viewBox="0 0 48 48" version="1.1"><title>Codepen-color</title><g id="Icons" stroke="none" stroke-width="1" fill="none" fill-rule="evenodd"><g id="Color-" transform="translate(-800.000000, -160.000000)" fill="#0B0B0A"><path d="M847.982 176.419c-.005-.032-.012-.06-.016-.09a2.064 2.064 0 0 0-.037-.173c-.009-.034-.022-.067-.033-.1a2.531 2.531 0 0 0-.052-.15 1.027 1.027 0 0 0-.047-.1 1.065 1.065 0 0 0-.07-.137c-.018-.033-.039-.065-.058-.096a2.025 2.025 0 0 0-.261-.327c-.028-.027-.053-.056-.082-.08a3.42 3.42 0 0 0-.116-.099c-.032-.024-.062-.048-.094-.07l-.034-.026-21.938-14.625a2.063 2.063 0 0 0-2.288 0l-21.937 14.625-.034.026a1.853 1.853 0 0 0-.21.17c-.029.023-.056.052-.083.079-.035.036-.07.073-.101.112a1.326 1.326 0 0 0-.158.215c-.021.031-.04.063-.06.096a1.664 1.664 0 0 0-.07.136c-.015.032-.032.066-.045.101-.022.05-.038.099-.054.15-.011.033-.023.066-.032.1-.015.056-.025.114-.036.173-.006.03-.013.058-.016.09-.012.087-.02.177-.02.268v14.625c0 .09.008.18.02.27.003.029.01.059.016.089.01.059.021.115.036.173.009.034.021.067.032.1.016.05.032.1.053.151.014.034.03.066.045.1.023.046.045.091.071.138.02.031.039.063.06.094a1.824 1.824 0 0 0 .26.326c.027.028.053.055.082.08a1.853 1.853 0 0 0 .21.17l.034.026 21.937 14.625a2.061 2.061 0 0 0 2.288 0l21.938-14.625.034-.026c.032-.022.062-.046.094-.07a3.42 3.42 0 0 0 .116-.1c.029-.025.054-.052.082-.08a1.812 1.812 0 0 0 .26-.326c.02-.031.041-.063.059-.094.027-.047.05-.092.07-.138.017-.034.034-.066.047-.1.02-.05.036-.101.052-.151.011-.033.024-.066.034-.1.014-.058.025-.114.036-.173.004-.03.011-.06.016-.088.012-.09.018-.18.018-.27v-14.625c0-.092-.006-.182-.018-.269zm-21.92-10.502l16.161 10.773-7.217 4.829-8.943-5.982v-9.62zm-4.125 0v9.62l-8.941 5.982-7.22-4.829 16.162-10.773zm-17.812 14.631l5.162 3.452-5.162 3.452v-6.904zm17.813 21.535l-16.161-10.773 7.219-4.828 8.942 5.981v9.62zM824 188.88l-7.294-4.88 7.294-4.88 7.296 4.88-7.296 4.88zm2.063 13.203v-9.62l8.942-5.98 7.218 4.827-16.16 10.773zm17.812-14.631l-5.16-3.452 5.16-3.452v6.904z" id="Codepen"/></g></g><metadata><rdf:RDF xmlns:rdf="http://www.w3.org/1999/02/22-rdf-syntax-ns#" xmlns:rdfs="http://www.w3.org/2000/01/rdf-schema#" xmlns:dc="http://purl.org/dc/elements/1.1/"><rdf:Description about="https://iconscout.com/legal#licenses" dc:title="codepen,color" dc:description="codepen,color" dc:publisher="Iconscout" dc:date="2017-09-14" dc:format="image/svg+xml" dc:language="en"><dc:creator><rdf:Bag><rdf:li>Alexis Doreau</rdf:li></rdf:Bag></dc:creator></rdf:Description></rdf:RDF></metadata></svg>